<?xml version="1.0" standalone="no"?>
<!DOCTYPE svg PUBLIC "-//W3C//DTD SVG 20010904//EN"
 "http://www.w3.org/TR/2001/REC-SVG-20010904/DTD/svg10.dtd">
<svg version="1.0" xmlns="http://www.w3.org/2000/svg"
 width="1211.000000pt" height="1035.000000pt" viewBox="0 0 1211.000000 1035.000000"
 preserveAspectRatio="xMidYMid meet">

<g transform="translate(0.000000,1035.000000) scale(0.100000,-0.100000)"
fill="#000000" stroke="none">
<path d="M5240 9830 l0 -520 -2114 0 c-2334 0 -2190 4 -2380 -64 -353 -126
-611 -409 -714 -784 l-27 -97 -3 -3075 c-3 -2783 -1 -3084 13 -3173 39 -233
143 -435 313 -606 144 -145 315 -245 510 -299 l97 -27 5088 -3 c4969 -2 5091
-2 5180 17 454 94 797 440 888 896 20 101 21 6195 1 6295 -77 384 -335 700
-686 840 -187 75 -169 73 -798 77 l-568 4 0 520 0 519 -2400 0 -2400 0 0 -520z
m4260 -545 l0 -514 788 -3 787 -3 80 -28 c150 -52 269 -153 340 -288 70 -133
65 126 65 -3204 0 -2648 -2 -3018 -15 -3074 -49 -205 -226 -381 -435 -432 -46
-12 -887 -14 -5065 -14 l-5010 0 -70 22 c-186 59 -332 204 -390 386 l-25 78 0
3034 0 3034 25 78 c59 185 209 330 405 391 51 15 226 17 2433 19 l2377 3 0
515 0 515 1855 0 1855 0 0 -515z"/>
<path d="M1590 7630 l0 -410 1285 0 1285 0 0 410 0 410 -1285 0 -1285 0 0
-410z"/>
<path d="M7698 7360 c-998 -83 -1806 -869 -1944 -1890 -7 -58 -14 -186 -14
-285 0 -266 33 -473 112 -710 241 -725 861 -1279 1599 -1430 784 -159 1587
135 2088 764 244 307 400 670 457 1066 23 160 23 467 0 620 -57 373 -187 693
-403 995 -85 119 -349 385 -461 464 -374 265 -750 394 -1192 410 -74 2 -183 0
-242 -4z m213 -980 c48 -9 68 -22 69 -42 0 -5 -21 -8 -47 -9 -27 0 -56 -3 -65
-7 -16 -6 -16 -10 -4 -33 33 -65 31 -78 -43 -206 -24 -42 -95 -113 -112 -113
-8 0 -20 -9 -27 -20 -7 -12 -17 -18 -21 -15 -5 3 -11 0 -13 -6 -5 -14 -102
-41 -149 -41 -19 0 -50 7 -68 17 -32 16 -101 78 -101 90 0 4 -16 23 -35 43
-33 35 -35 41 -35 105 l0 67 68 44 c94 61 200 103 327 130 41 8 204 6 256 -4z
m460 -2290 c-22 -19 -51 -27 -51 -15 0 6 59 34 70 34 3 0 -6 -9 -19 -19z"/>
<path d="M2683 4244 c-8 -4 -10 -21 -6 -56 6 -48 5 -51 -13 -44 -96 40 -212
31 -254 -19 -10 -12 -17 -50 -20 -119 l-5 -101 -37 3 c-32 3 -38 0 -38 -15 0
-11 -14 -32 -31 -49 -46 -44 -59 -76 -59 -148 0 -57 5 -75 41 -143 23 -43 56
-98 74 -123 21 -28 37 -67 45 -105 7 -33 19 -73 28 -90 8 -16 21 -60 29 -97 7
-37 47 -142 88 -233 94 -208 98 -235 40 -252 -35 -11 -36 -11 -56 30 -12 23
-63 101 -115 174 -132 185 -279 316 -509 451 l-71 42 -111 -3 c-98 -2 -137 -9
-122 -20 2 -2 36 -14 74 -26 107 -34 184 -75 256 -135 226 -189 379 -570 396
-988 3 -86 9 -161 12 -166 3 -5 78 -27 166 -49 l160 -41 295 7 c162 4 301 10
308 14 37 24 5 29 -157 26 -93 -2 -173 -1 -177 4 -4 4 9 7 29 7 66 0 197 61
197 92 0 11 -29 7 -97 -13 -38 -12 -44 -11 -64 7 -37 33 -51 73 -71 208 -11
72 -23 158 -28 191 -6 33 -10 79 -10 102 l0 41 156 87 c180 101 204 119 229
174 16 37 16 44 4 78 -19 50 -75 87 -232 153 -152 63 -176 85 -213 195 -15 44
-42 119 -60 168 -31 79 -41 117 -30 117 2 0 23 -9 47 -20 50 -22 109 -26 127
-8 15 15 16 148 1 203 -6 22 -13 61 -16 87 -5 45 -3 48 29 68 18 11 39 20 46
20 7 0 29 12 48 28 32 25 34 30 34 88 0 58 -1 62 -26 68 -26 7 -114 -21 -114
-36 0 -10 -85 -21 -108 -14 -14 5 -22 19 -27 48 -7 37 -5 43 25 68 50 43 39
65 -35 67 -33 1 -65 0 -72 -3z m207 -1378 c0 -2 -8 -10 -17 -17 -16 -13 -17
-12 -4 4 13 16 21 21 21 13z m-206 -466 c30 -136 35 -157 50 -215 9 -33 16
-84 16 -112 0 -40 5 -58 20 -73 32 -32 24 -40 -43 -40 l-64 0 -7 164 c-4 90
-4 176 0 190 3 15 1 32 -4 39 -19 22 -26 95 -12 112 18 22 28 8 44 -65z"/>
<path d="M1452 3232 c-89 -49 -217 -194 -298 -337 -126 -227 -224 -613 -224
-886 0 -58 1 -60 33 -73 52 -21 286 -90 291 -85 2 2 6 121 10 264 9 435 72
749 186 928 39 62 98 125 132 143 37 19 35 30 -4 42 -67 20 -95 21 -126 4z"/>
<path d="M1690 2670 c-69 -4 -145 -12 -170 -19 -100 -27 -110 -32 -110 -54 0
-34 73 -247 85 -247 6 0 24 14 41 31 40 43 94 68 178 84 74 14 284 21 346 12
19 -3 54 -8 78 -11 l43 -4 -3 51 -3 51 -70 38 c-121 64 -215 80 -415 68z"/>
<path d="M1072 487 c-62 -161 -112 -298 -112 -305 0 -8 16 -12 44 -12 l44 0
33 95 34 95 120 0 120 0 36 -92 35 -93 52 -3 53 -3 -14 33 c-7 18 -62 156
-123 305 l-109 273 -51 0 -50 0 -112 -293z m231 11 l26 -68 -94 0 -94 0 31 83
c17 45 37 105 46 132 l15 50 22 -65 c13 -36 34 -95 48 -132z"/>
<path d="M3902 482 c-62 -163 -112 -301 -112 -305 0 -4 21 -7 46 -5 l46 3 32
90 32 90 121 3 120 3 36 -93 35 -93 52 -3 c47 -3 52 -1 46 15 -4 10 -60 147
-124 306 l-116 287 -51 0 -50 0 -113 -298z m258 -49 c0 -2 -40 -3 -90 -3 -52
0 -90 4 -90 10 0 5 16 51 34 102 19 51 38 106 42 122 6 25 13 13 55 -100 27
-71 49 -130 49 -131z"/>
<path d="M4400 474 l0 -305 43 3 42 3 3 91 c2 75 6 95 22 109 19 17 21 14 91
-94 l72 -111 49 0 c40 0 49 3 45 15 -4 8 -42 68 -87 134 -44 66 -80 124 -80
128 0 5 34 42 75 83 41 41 75 78 75 82 0 5 -21 8 -47 8 -46 0 -50 -2 -130 -82
l-83 -83 0 163 0 162 -45 0 -45 0 0 -306z"/>
<path d="M4820 475 l0 -305 40 0 40 0 0 133 c0 72 5 149 10 169 13 47 52 78
97 78 80 0 93 -31 93 -231 l0 -149 41 0 41 0 -4 188 c-3 212 -8 228 -79 256
-55 22 -98 20 -152 -8 l-47 -23 0 98 0 99 -40 0 -40 0 0 -305z"/>
<path d="M6500 475 l0 -305 45 0 45 0 0 125 0 125 113 0 c153 1 206 22 245 95
25 47 21 143 -8 189 -40 65 -78 76 -272 76 l-168 0 0 -305z m344 199 c19 -20
26 -37 26 -66 0 -84 -41 -108 -185 -108 l-95 0 0 100 0 100 114 0 c109 0 114
-1 140 -26z"/>
<path d="M7050 475 l0 -305 39 0 39 0 4 161 3 161 33 29 c23 20 43 29 68 29
81 0 94 -33 94 -237 l0 -143 40 0 40 0 0 173 c0 190 -7 220 -63 261 -42 31
-144 29 -186 -2 l-31 -23 0 101 0 100 -40 0 -40 0 0 -305z"/>
<path d="M10342 478 l3 -303 43 -3 42 -3 0 151 c0 92 4 160 11 173 19 37 52
57 96 57 33 0 46 -5 62 -26 19 -25 21 -40 21 -190 l0 -164 46 0 46 0 -3 183
c-3 154 -7 187 -22 210 -25 39 -58 57 -113 63 -45 6 -73 -1 -136 -34 -5 -2 -8
39 -8 92 l0 96 -45 0 -45 0 2 -302z"/>
<path d="M5333 749 c-31 -19 -33 -25 -33 -75 0 -53 0 -54 -30 -54 -28 0 -30
-3 -30 -35 0 -32 2 -35 30 -35 l30 0 0 -165 c0 -163 0 -166 25 -190 20 -21 34
-25 80 -25 l56 0 -3 38 c-3 34 -6 37 -38 42 l-35 5 -3 148 -3 147 36 0 c33 0
35 2 35 35 0 33 -2 35 -35 35 l-35 0 0 75 c0 41 -3 75 -7 75 -5 0 -23 -10 -40
-21z"/>
<path d="M8023 748 c-31 -18 -33 -24 -33 -74 0 -53 0 -54 -30 -54 -28 0 -30
-3 -30 -35 0 -32 2 -35 29 -35 l30 0 3 -171 c3 -166 4 -171 27 -190 16 -13 39
-19 75 -19 29 0 55 2 57 5 3 2 3 20 1 40 -4 32 -7 35 -37 35 -21 0 -35 6 -39
16 -3 9 -6 76 -6 150 l0 134 40 0 c39 0 40 1 40 35 0 34 -1 35 -40 35 l-40 0
0 75 c0 41 -3 75 -7 74 -5 0 -23 -10 -40 -21z"/>
<path d="M1710 619 c-13 -6 -33 -17 -42 -26 -17 -15 -18 -15 -18 5 0 19 -6 22
-40 22 l-40 0 0 -225 0 -225 40 0 40 0 0 133 c0 144 8 188 42 224 28 30 87 32
114 2 17 -19 19 -41 22 -190 l4 -169 39 0 39 0 0 150 c0 195 16 230 103 230
62 0 67 -15 67 -208 l0 -172 45 0 45 0 0 163 c0 89 -5 180 -10 202 -22 96
-152 127 -233 55 -32 -28 -33 -28 -46 -9 -25 41 -114 61 -171 38z"/>
<path d="M2362 616 c-62 -20 -85 -45 -106 -112 -6 -20 -2 -22 35 -26 34 -3 42
0 49 17 21 54 90 78 153 52 24 -11 38 -24 43 -41 11 -45 0 -53 -88 -65 -110
-16 -139 -26 -172 -60 -55 -57 -43 -155 24 -194 43 -26 145 -23 203 6 l46 24
6 -24 c5 -20 12 -23 51 -23 40 0 45 2 38 18 -4 9 -10 94 -14 187 -6 185 -13
209 -68 235 -40 19 -150 22 -200 6z m164 -322 c-52 -78 -196 -78 -196 1 0 36
35 57 122 74 l83 16 3 -33 c2 -19 -4 -44 -12 -58z"/>
<path d="M2844 621 c-49 -12 -93 -43 -109 -77 -24 -51 -20 -61 25 -66 27 -2
40 0 40 9 0 6 11 24 24 40 21 24 31 27 80 27 62 0 89 -18 101 -66 6 -24 4 -28
-32 -37 -21 -5 -63 -12 -93 -16 -118 -15 -173 -60 -173 -141 0 -84 50 -124
153 -124 51 0 74 6 108 25 l43 24 9 -24 c8 -21 16 -25 51 -25 38 0 41 2 34 23
-4 12 -10 100 -14 195 l-6 174 -28 23 c-46 40 -133 55 -213 36z m161 -273
c-10 -59 -30 -84 -80 -104 -50 -19 -85 -14 -115 16 -46 46 -12 84 100 109 47
10 89 19 93 20 5 0 6 -18 2 -41z"/>
<path d="M3318 607 c-45 -23 -48 -23 -48 -6 0 15 -8 19 -40 19 l-40 0 0 -225
0 -225 45 0 45 0 0 150 c0 198 15 230 109 230 31 0 44 -6 60 -26 19 -25 21
-40 21 -190 l0 -164 46 0 46 0 -4 178 c-4 190 -11 219 -59 254 -14 11 -49 21
-80 24 -44 5 -62 1 -101 -19z"/>
<path d="M5612 616 c-23 -8 -50 -20 -59 -28 -16 -13 -58 -97 -51 -103 1 -2 20
-5 41 -6 33 -3 40 0 57 29 33 54 107 66 167 27 19 -13 23 -23 21 -48 l-3 -32
-95 -16 c-122 -20 -131 -24 -164 -58 -53 -56 -41 -156 23 -194 45 -26 146 -23
204 7 l47 23 6 -23 c5 -21 12 -24 51 -24 39 0 44 2 37 18 -4 9 -10 94 -14 187
-6 185 -11 205 -63 231 -43 23 -151 28 -205 10z m164 -322 c-52 -78 -196 -78
-196 1 0 36 35 57 122 74 l83 16 3 -33 c2 -19 -4 -44 -12 -58z"/>
<path d="M6105 619 c-11 -6 -26 -19 -32 -27 -11 -14 -13 -13 -13 6 0 19 -6 22
-40 22 l-40 0 0 -225 0 -225 39 0 39 0 3 154 c4 139 6 157 25 183 18 24 28 28
70 28 46 0 49 2 58 33 6 22 6 36 -1 43 -16 16 -85 21 -108 8z"/>
<path d="M7616 615 c-50 -17 -102 -69 -117 -114 -28 -83 -8 -222 39 -274 48
-53 170 -75 245 -43 44 18 94 77 108 128 16 60 7 164 -19 215 -45 87 -154 125
-256 88z m119 -69 c51 -22 75 -68 75 -144 0 -109 -39 -162 -118 -162 -73 0
-122 63 -122 157 1 66 29 125 71 146 42 20 51 21 94 3z"/>
<path d="M8318 616 c-87 -31 -126 -86 -135 -187 -11 -113 36 -213 114 -245 49
-21 147 -18 193 6 85 44 125 153 100 275 -26 125 -151 194 -272 151z m121 -74
c46 -25 71 -74 71 -140 0 -96 -48 -162 -117 -162 -80 0 -123 55 -123 157 0 73
24 122 70 145 44 22 57 22 99 0z"/>
<path d="M8778 621 c-82 -27 -131 -109 -131 -221 0 -99 38 -171 108 -207 39
-21 127 -20 159 1 14 9 28 16 31 16 11 0 4 -62 -10 -89 -36 -70 -168 -65 -197
8 -2 4 -20 11 -40 15 -36 7 -38 6 -38 -19 0 -75 70 -124 175 -125 69 0 137 28
167 70 28 39 38 127 38 348 l0 202 -40 0 c-34 0 -40 -3 -40 -21 l0 -20 -30 21
c-33 23 -111 34 -152 21z m106 -76 c82 -39 101 -184 34 -260 -26 -30 -36 -35
-75 -35 -37 0 -50 5 -73 30 -64 68 -52 215 22 260 40 24 50 25 92 5z"/>
<path d="M9239 601 l-29 -29 0 24 c0 21 -5 24 -35 24 l-35 0 0 -225 0 -225 39
0 40 0 3 154 c3 140 5 157 24 183 19 24 28 28 67 26 43 -1 46 1 56 29 15 43
15 45 -20 57 -51 18 -78 13 -110 -18z"/>
<path d="M9512 616 c-23 -8 -50 -20 -59 -28 -16 -13 -58 -97 -51 -103 1 -2 20
-5 41 -6 33 -3 40 0 57 29 33 54 107 66 167 27 19 -13 23 -23 21 -48 l-3 -32
-95 -16 c-122 -20 -131 -24 -164 -58 -53 -56 -41 -156 23 -194 45 -26 146 -23
204 7 l47 23 6 -23 c5 -21 12 -24 51 -24 39 0 44 2 37 18 -4 9 -10 94 -14 187
-6 185 -11 205 -63 231 -43 23 -151 28 -205 10z m164 -322 c-52 -78 -196 -78
-196 1 0 36 35 57 122 74 l83 16 3 -33 c2 -19 -4 -44 -12 -58z"/>
<path d="M10020 619 c-13 -6 -33 -17 -42 -26 -17 -15 -18 -15 -18 5 0 19 -6
22 -40 22 l-40 0 0 -305 0 -305 40 0 40 0 0 100 0 100 33 -20 c42 -26 120 -26
167 -1 142 75 140 357 -3 422 -46 20 -98 23 -137 8z m105 -81 c36 -28 55 -76
55 -138 0 -94 -45 -160 -110 -160 -71 0 -110 55 -110 155 0 31 6 70 14 89 17
42 61 76 96 76 15 0 40 -10 55 -22z"/>
<path d="M10770 611 c0 -5 36 -104 80 -221 77 -203 80 -213 68 -247 -16 -44
-48 -67 -88 -61 -28 4 -30 2 -30 -27 0 -40 16 -55 57 -55 45 0 75 16 100 53
21 30 213 533 213 557 0 5 -18 10 -39 10 -28 0 -41 -5 -46 -17 -18 -45 -89
-242 -99 -277 l-12 -38 -59 166 -59 166 -43 0 c-24 0 -43 -4 -43 -9z"/>
</g>
</svg>
