<?xml version="1.0" standalone="no"?>
<!DOCTYPE svg PUBLIC "-//W3C//DTD SVG 20010904//EN"
 "http://www.w3.org/TR/2001/REC-SVG-20010904/DTD/svg10.dtd">
<svg version="1.0" xmlns="http://www.w3.org/2000/svg"
 width="194.000000pt" height="194.000000pt" viewBox="0 0 194.000000 194.000000"
 preserveAspectRatio="xMidYMid meet">
<metadata>
Created by potrace 1.11, written by Peter Selinger 2001-2013
</metadata>
<g transform="translate(0.000000,194.000000) scale(0.100000,-0.100000)"
fill="#000000" stroke="none">
<path d="M925 1895 c-166 -29 -314 -105 -427 -220 -124 -126 -164 -276 -106
-393 20 -39 72 -71 134 -81 77 -12 93 0 76 57 -35 115 6 287 89 370 48 49 89
76 89 60 0 -7 -27 -139 -61 -293 -33 -154 -63 -291 -65 -305 -3 -14 -19 -88
-35 -165 -17 -77 -33 -151 -35 -165 -3 -14 -16 -72 -29 -130 -35 -152 -35
-157 -19 -171 8 -7 41 -13 72 -15 125 -5 202 -48 475 -262 211 -165 363 -199
454 -100 31 34 60 94 78 163 28 110 18 124 -77 103 -73 -17 -141 -14 -217 8
-58 17 -72 23 -288 132 -77 40 -148 72 -157 72 -18 0 -17 14 10 130 9 36 22
97 30 135 8 39 17 81 20 95 74 346 106 500 110 520 3 14 7 31 10 39 2 8 7 28
10 45 2 17 20 100 38 185 18 85 31 162 28 173 -3 11 -14 18 -31 19 -14 1 -44
2 -66 3 -22 2 -71 -3 -110 -9z"/>
</g>
</svg>
